<svg id="Layer_1" data-name="Layer 1" xmlns="http://www.w3.org/2000/svg" viewBox="0 0 107.15 9.73"><path d="M1.92.47,4.38,7,6.84.47H8.75V9H7.28V6.19l.14-3.76L4.9,9H3.84L1.33,2.43l.15,3.76V9H0V.47Z" style="fill:#231f20"/><path d="M10.37,1a.73.73,0,0,1,.21-.54.77.77,0,0,1,.59-.22.78.78,0,0,1,.6.22A.73.73,0,0,1,12,1a.73.73,0,0,1-.21.54.81.81,0,0,1-.6.21.8.8,0,0,1-.59-.21A.73.73,0,0,1,10.37,1Zm1.51,8H10.46V2.66h1.42Z" style="fill:#231f20"/><path d="M16,8a1.26,1.26,0,0,0,.88-.31,1.06,1.06,0,0,0,.38-.77h1.34A2.13,2.13,0,0,1,18.27,8a2.4,2.4,0,0,1-.94.81,2.77,2.77,0,0,1-1.28.3A2.69,2.69,0,0,1,14,8.26a3.43,3.43,0,0,1-.78-2.38V5.73a3.35,3.35,0,0,1,.77-2.32,2.69,2.69,0,0,1,2.11-.87,2.59,2.59,0,0,1,1.84.66,2.34,2.34,0,0,1,.75,1.73H17.3A1.28,1.28,0,0,0,16.92,4,1.15,1.15,0,0,0,16,3.69a1.24,1.24,0,0,0-1.07.5,2.52,2.52,0,0,0-.38,1.52v.23A2.56,2.56,0,0,0,15,7.47,1.26,1.26,0,0,0,16,8Z" style="fill:#231f20"/><path d="M21.12,3.35a2.21,2.21,0,0,1,1.76-.81c1.35,0,2,.77,2.06,2.32V9H23.51V4.91A1.25,1.25,0,0,0,23.23,4a1.18,1.18,0,0,0-.84-.27,1.35,1.35,0,0,0-1.27.76V9H19.69V0h1.43Z" style="fill:#231f20"/><path d="M30.16,9A2.48,2.48,0,0,1,30,8.41a2.38,2.38,0,0,1-3.22.16,1.75,1.75,0,0,1-.61-1.35,1.78,1.78,0,0,1,.76-1.55,3.65,3.65,0,0,1,2.15-.54H30V4.71a1.13,1.13,0,0,0-.27-.79,1.14,1.14,0,0,0-.84-.29,1.29,1.29,0,0,0-.8.24.77.77,0,0,0-.31.62H26.31a1.6,1.6,0,0,1,.34-1,2.35,2.35,0,0,1,.94-.71,3.36,3.36,0,0,1,1.33-.26,2.69,2.69,0,0,1,1.78.56,2,2,0,0,1,.68,1.58V7.54a3.22,3.22,0,0,0,.24,1.36V9ZM28.6,8a1.55,1.55,0,0,0,.79-.2A1.35,1.35,0,0,0,30,7.22V6h-.76A2.11,2.11,0,0,0,28,6.3a.88.88,0,0,0-.4.78.83.83,0,0,0,.27.65A1.05,1.05,0,0,0,28.6,8Z" style="fill:#231f20"/><path d="M35.66,9.12a2.94,2.94,0,0,1-2.19-.86A3.08,3.08,0,0,1,32.62,6V5.82A3.89,3.89,0,0,1,33,4.12,2.84,2.84,0,0,1,34,3a2.69,2.69,0,0,1,1.48-.42,2.49,2.49,0,0,1,2,.83,3.5,3.5,0,0,1,.7,2.34v.57H34.06a1.91,1.91,0,0,0,.52,1.24A1.58,1.58,0,0,0,35.74,8a1.93,1.93,0,0,0,1.6-.79l.76.73a2.54,2.54,0,0,1-1,.88A3.2,3.2,0,0,1,35.66,9.12Zm-.17-5.43a1.19,1.19,0,0,0-1,.41,2.13,2.13,0,0,0-.46,1.14H36.8V5.13a1.76,1.76,0,0,0-.38-1.08A1.23,1.23,0,0,0,35.49,3.69Z" style="fill:#231f20"/><path d="M40.82,9H39.4V0h1.42Z" style="fill:#231f20"/><path d="M50.27,7H47l-.69,2H44.74L48,.47h1.33L52.52,9H51ZM47.38,5.82h2.48L48.62,2.28Z" style="fill:#231f20"/><path d="M55.41,6.28l-.64.65V9H53.35V0h1.42V5.19l.45-.56,1.75-2h1.71L56.33,5.3,58.93,9H57.29Z" style="fill:#231f20"/><path d="M59.61,1a.73.73,0,0,1,.21-.54.78.78,0,0,1,.6-.22A.77.77,0,0,1,61,.47a.74.74,0,0,1,.22.54.74.74,0,0,1-.22.54.8.8,0,0,1-.59.21.81.81,0,0,1-.6-.21A.73.73,0,0,1,59.61,1Zm1.52,8H59.7V2.66h1.43Z" style="fill:#231f20"/><path d="M64,2.66l0,.73a2.29,2.29,0,0,1,1.84-.85c1.32,0,2,.76,2,2.27V9H66.48V4.89A1.26,1.26,0,0,0,66.21,4a1.09,1.09,0,0,0-.85-.29,1.37,1.37,0,0,0-1.28.78V9H62.65V2.66Z" style="fill:#231f20"/><path d="M72.9,7.28a.63.63,0,0,0-.31-.58,3.17,3.17,0,0,0-1-.35A5.38,5.38,0,0,1,70.34,6a1.62,1.62,0,0,1-1.07-1.5A1.7,1.7,0,0,1,70,3.09a2.78,2.78,0,0,1,1.76-.55,2.83,2.83,0,0,1,1.84.57,1.79,1.79,0,0,1,.7,1.45H72.83a.88.88,0,0,0-.3-.68,1.18,1.18,0,0,0-.81-.27,1.25,1.25,0,0,0-.77.22.68.68,0,0,0-.29.58.6.6,0,0,0,.27.51,3.89,3.89,0,0,0,1.12.36,5.51,5.51,0,0,1,1.31.44,1.89,1.89,0,0,1,.71.61,1.53,1.53,0,0,1,.23.87,1.65,1.65,0,0,1-.71,1.39,3,3,0,0,1-1.85.53,3.38,3.38,0,0,1-1.39-.28,2.3,2.3,0,0,1-.95-.78A1.81,1.81,0,0,1,69.06,7h1.38a1,1,0,0,0,.38.78,1.51,1.51,0,0,0,.93.27,1.48,1.48,0,0,0,.86-.21A.66.66,0,0,0,72.9,7.28Z" style="fill:#231f20"/><path d="M84.6.47V6.25a2.78,2.78,0,0,1-.79,2.11,3.35,3.35,0,0,1-4.25,0,2.79,2.79,0,0,1-.79-2.09V.47h.31V6.23a2.49,2.49,0,0,0,.72,1.88,2.92,2.92,0,0,0,3.77,0,2.52,2.52,0,0,0,.71-1.88V.47Z" style="fill:#231f20"/><path d="M89.26,4.4,92,.47h.39l-3,4.18L92.53,9h-.4L89.26,4.89,86.38,9H86l3.06-4.35-3-4.18h.4Z" style="fill:#231f20"/><path d="M93.44,9.73h-.35L96.66.47H97Z" style="fill:#231f20"/><path d="M104.34.47V6.25a2.82,2.82,0,0,1-.78,2.11,3,3,0,0,1-2.13.76,3,3,0,0,1-2.13-.76,2.83,2.83,0,0,1-.79-2.09V.47h.32V6.23a2.52,2.52,0,0,0,.71,1.88,2.62,2.62,0,0,0,1.89.69,2.59,2.59,0,0,0,1.89-.69A2.52,2.52,0,0,0,104,6.23V.47Z" style="fill:#231f20"/><path d="M107.15,9h-.32V.47h.32Z" style="fill:#231f20"/></svg>